STARTFONT 2.1
FONT -Monotype-Gill Sans-Bold-I-Normal--14-140-72-72-P-71-iso8859-1
SIZE 14 72 72
FONTBOUNDINGBOX 16 17 -1 -4

STARTPROPERTIES 22
FOUNDRY "Monotype"
FAMILY_NAME "Gill Sans"
WEIGHT_NAME "Bold"
SLANT "I"
SETWIDTH_NAME "Normal"
ADD_STYLE_NAME ""
PIXEL_SIZE 14
POINT_SIZE 140
RESOLUTION_X 72
RESOLUTION_Y 72
SPACING "P"
AVERAGE_WIDTH 71
CHARSET_REGISTRY "iso8859"
CHARSET_ENCODING "1"
COPYRIGHT "Copyright (c) 1996 Monotype Typography Ltd."
CAP_HEIGHT 11
X_HEIGHT 7
WEIGHT 10
QUAD_WIDTH 9
DEFAULT_CHAR 32
FONT_DESCENT 4
FONT_ASCENT 13
ENDPROPERTIES

CHARS 191

STARTCHAR space
ENCODING 32
SWIDTH 278 0
DWIDTH 5 0
BBX 0 0 0 0
BITMAP
ENDCHAR

STARTCHAR exclam
ENCODING 33
SWIDTH 260 0
DWIDTH 4 0
BBX 4 10 0 0
BITMAP
30
30
30
60
60
60
00
00
C0
C0
ENDCHAR

STARTCHAR quotedbl
ENCODING 34
SWIDTH 479 0
DWIDTH 7 0
BBX 4 3 2 8
BITMAP
90
90
90
ENDCHAR

STARTCHAR numbersign
ENCODING 35
SWIDTH 584 0
DWIDTH 9 0
BBX 8 10 1 0
BITMAP
12
12
12
7F
24
24
FE
48
48
48
ENDCHAR

STARTCHAR dollar
ENCODING 36
SWIDTH 490 0
DWIDTH 7 0
BBX 8 13 0 -3
BITMAP
08
3E
6B
68
38
18
1C
16
D6
7C
10
20
20
ENDCHAR

STARTCHAR percent
ENCODING 37
SWIDTH 719 0
DWIDTH 11 0
BBX 9 10 1 0
BITMAP
3180
7300
9600
E400
CC00
1980
3380
2480
6700
C600
ENDCHAR

STARTCHAR ampersand
ENCODING 38
SWIDTH 729 0
DWIDTH 11 0
BBX 10 10 1 0
BITMAP
0700
0D80
0980
0B00
1E00
7800
CD80
C700
DEC0
7380
ENDCHAR

STARTCHAR quoteright
ENCODING 39
SWIDTH 260 0
DWIDTH 4 0
BBX 3 4 1 6
BITMAP
60
60
40
80
ENDCHAR

STARTCHAR parenleft
ENCODING 40
SWIDTH 344 0
DWIDTH 5 0
BBX 5 13 1 -3
BITMAP
08
10
30
60
60
C0
C0
C0
C0
C0
40
60
20
ENDCHAR

STARTCHAR parenright
ENCODING 41
SWIDTH 344 0
DWIDTH 5 0
BBX 5 13 0 -3
BITMAP
20
30
10
18
18
18
18
18
30
30
60
40
80
ENDCHAR

STARTCHAR asterisk
ENCODING 42
SWIDTH 479 0
DWIDTH 7 0
BBX 5 7 2 3
BITMAP
20
A8
F8
70
F8
A8
20
ENDCHAR

STARTCHAR plus
ENCODING 43
SWIDTH 584 0
DWIDTH 9 0
BBX 7 7 1 1
BITMAP
10
10
10
FE
10
10
10
ENDCHAR

STARTCHAR comma
ENCODING 44
SWIDTH 260 0
DWIDTH 4 0
BBX 3 4 0 -2
BITMAP
60
60
40
80
ENDCHAR

STARTCHAR minus
ENCODING 45
SWIDTH 584 0
DWIDTH 9 0
BBX 7 1 1 5
BITMAP
FE
ENDCHAR

STARTCHAR period
ENCODING 46
SWIDTH 260 0
DWIDTH 4 0
BBX 2 2 1 0
BITMAP
C0
C0
ENDCHAR

STARTCHAR slash
ENCODING 47
SWIDTH 281 0
DWIDTH 4 0
BBX 4 10 0 0
BITMAP
10
10
20
20
20
40
40
40
80
80
ENDCHAR

STARTCHAR zero
ENCODING 48
SWIDTH 531 0
DWIDTH 8 0
BBX 7 10 1 0
BITMAP
1C
36
66
66
C6
C6
CC
CC
D8
70
ENDCHAR

STARTCHAR one
ENCODING 49
SWIDTH 531 0
DWIDTH 8 0
BBX 4 10 2 0
BITMAP
30
30
30
60
60
60
60
C0
C0
C0
ENDCHAR

STARTCHAR two
ENCODING 50
SWIDTH 531 0
DWIDTH 8 0
BBX 7 10 1 0
BITMAP
3C
66
06
06
0C
18
30
60
C0
F8
ENDCHAR

STARTCHAR three
ENCODING 51
SWIDTH 531 0
DWIDTH 8 0
BBX 7 10 1 0
BITMAP
1C
36
06
0C
38
0C
0C
0C
CC
78
ENDCHAR

STARTCHAR four
ENCODING 52
SWIDTH 531 0
DWIDTH 8 0
BBX 8 10 0 0
BITMAP
03
07
0E
1A
36
66
FF
0C
0C
0C
ENDCHAR

STARTCHAR five
ENCODING 53
SWIDTH 531 0
DWIDTH 8 0
BBX 7 10 1 0
BITMAP
3E
30
60
60
78
0C
0C
0C
D8
70
ENDCHAR

STARTCHAR six
ENCODING 54
SWIDTH 531 0
DWIDTH 8 0
BBX 7 10 1 0
BITMAP
0C
18
30
60
7C
C6
C6
C6
CC
78
ENDCHAR

STARTCHAR seven
ENCODING 55
SWIDTH 531 0
DWIDTH 8 0
BBX 6 10 2 0
BITMAP
FC
0C
18
30
30
60
60
C0
C0
C0
ENDCHAR

STARTCHAR eight
ENCODING 56
SWIDTH 531 0
DWIDTH 8 0
BBX 8 10 0 0
BITMAP
0E
1B
33
36
1C
3C
66
C6
CC
78
ENDCHAR

STARTCHAR nine
ENCODING 57
SWIDTH 531 0
DWIDTH 8 0
BBX 7 10 1 0
BITMAP
3C
66
C6
C6
C6
7C
0C
18
30
60
ENDCHAR

STARTCHAR colon
ENCODING 58
SWIDTH 260 0
DWIDTH 4 0
BBX 3 7 0 0
BITMAP
60
60
00
00
00
C0
C0
ENDCHAR

STARTCHAR semicolon
ENCODING 59
SWIDTH 260 0
DWIDTH 4 0
BBX 4 9 0 -2
BITMAP
30
30
00
00
00
60
60
40
80
ENDCHAR

STARTCHAR less
ENCODING 60
SWIDTH 584 0
DWIDTH 9 0
BBX 7 7 1 1
BITMAP
06
18
60
80
60
18
06
ENDCHAR

STARTCHAR equal
ENCODING 61
SWIDTH 584 0
DWIDTH 9 0
BBX 7 4 1 3
BITMAP
FE
00
00
FE
ENDCHAR

STARTCHAR greater
ENCODING 62
SWIDTH 584 0
DWIDTH 9 0
BBX 7 7 1 1
BITMAP
C0
30
0C
02
0C
30
C0
ENDCHAR

STARTCHAR question
ENCODING 63
SWIDTH 323 0
DWIDTH 5 0
BBX 5 10 1 0
BITMAP
70
F8
98
18
30
60
40
00
C0
C0
ENDCHAR

STARTCHAR at
ENCODING 64
SWIDTH 979 0
DWIDTH 15 0
BBX 14 14 1 -3
BITMAP
07C0
1C70
3018
636C
CFE4
8C64
9864
98CC
98C8
DFD8
4EE0
600C
3878
0FC0
ENDCHAR

STARTCHAR A
ENCODING 65
SWIDTH 625 0
DWIDTH 9 0
BBX 8 10 0 0
BITMAP
06
06
0E
0E
1B
33
3F
63
C3
C3
ENDCHAR

STARTCHAR B
ENCODING 66
SWIDTH 635 0
DWIDTH 10 0
BBX 8 10 1 0
BITMAP
3E
33
33
63
7E
63
63
C3
C6
FC
ENDCHAR

STARTCHAR C
ENCODING 67
SWIDTH 688 0
DWIDTH 10 0
BBX 9 10 1 0
BITMAP
0F80
3800
7000
6000
C000
C000
C000
C300
6600
3C00
ENDCHAR

STARTCHAR D
ENCODING 68
SWIDTH 750 0
DWIDTH 11 0
BBX 10 10 1 0
BITMAP
3F00
3180
30C0
60C0
60C0
60C0
60C0
C180
C300
FE00
ENDCHAR

STARTCHAR E
ENCODING 69
SWIDTH 583 0
DWIDTH 9 0
BBX 7 10 1 0
BITMAP
3E
30
30
60
7C
60
60
C0
C0
FC
ENDCHAR

STARTCHAR F
ENCODING 70
SWIDTH 490 0
DWIDTH 7 0
BBX 7 10 1 0
BITMAP
3E
30
30
60
7C
60
60
C0
C0
C0
ENDCHAR

STARTCHAR G
ENCODING 71
SWIDTH 740 0
DWIDTH 11 0
BBX 10 10 1 0
BITMAP
0FC0
3800
7000
6000
C000
C380
C180
C300
6700
3C00
ENDCHAR

STARTCHAR H
ENCODING 72
SWIDTH 792 0
DWIDTH 12 0
BBX 11 10 1 0
BITMAP
3060
3060
3060
60C0
7FC0
60C0
60C0
C180
C180
C180
ENDCHAR

STARTCHAR I
ENCODING 73
SWIDTH 302 0
DWIDTH 5 0
BBX 4 10 1 0
BITMAP
30
30
30
60
60
60
60
C0
C0
C0
ENDCHAR

STARTCHAR J
ENCODING 74
SWIDTH 302 0
DWIDTH 5 0
BBX 6 13 -1 -3
BITMAP
0C
0C
0C
18
18
18
18
30
30
30
30
60
C0
ENDCHAR

STARTCHAR K
ENCODING 75
SWIDTH 646 0
DWIDTH 10 0
BBX 9 10 1 0
BITMAP
3180
3300
3600
6C00
7800
7800
6C00
C600
C300
C180
ENDCHAR

STARTCHAR L
ENCODING 76
SWIDTH 531 0
DWIDTH 8 0
BBX 7 10 0 0
BITMAP
30
30
30
60
60
60
60
C0
C0
FE
ENDCHAR

STARTCHAR M
ENCODING 77
SWIDTH 948 0
DWIDTH 14 0
BBX 13 10 0 0
BITMAP
1818
1818
1C38
3C78
3458
66D8
6698
6398
C318
C218
ENDCHAR

STARTCHAR N
ENCODING 78
SWIDTH 781 0
DWIDTH 12 0
BBX 11 10 1 0
BITMAP
3060
3060
3860
78C0
6CC0
66C0
66C0
C380
C180
C180
ENDCHAR

STARTCHAR O
ENCODING 79
SWIDTH 833 0
DWIDTH 12 0
BBX 10 10 1 0
BITMAP
0F00
3980
70C0
60C0
C0C0
C0C0
C180
C380
6700
3C00
ENDCHAR

STARTCHAR P
ENCODING 80
SWIDTH 583 0
DWIDTH 9 0
BBX 8 10 1 0
BITMAP
3E
33
33
63
66
7C
60
C0
C0
C0
ENDCHAR

STARTCHAR Q
ENCODING 81
SWIDTH 833 0
DWIDTH 12 0
BBX 10 13 1 -3
BITMAP
0F00
3980
70C0
60C0
C0C0
C0C0
C180
C380
6700
3C00
0C00
0780
0300
ENDCHAR

STARTCHAR R
ENCODING 82
SWIDTH 646 0
DWIDTH 10 0
BBX 9 10 1 0
BITMAP
3F00
3180
3180
6180
7F00
6C00
6600
C600
C300
C380
ENDCHAR

STARTCHAR S
ENCODING 83
SWIDTH 521 0
DWIDTH 8 0
BBX 8 10 0 0
BITMAP
1E
33
33
30
38
1C
0C
CC
CC
78
ENDCHAR

STARTCHAR T
ENCODING 84
SWIDTH 619 0
DWIDTH 9 0
BBX 8 10 2 0
BITMAP
FF
18
18
30
30
30
30
60
60
60
ENDCHAR

STARTCHAR U
ENCODING 85
SWIDTH 750 0
DWIDTH 11 0
BBX 10 10 1 0
BITMAP
30C0
30C0
30C0
6180
6180
6180
6180
C300
C300
7E00
ENDCHAR

STARTCHAR V
ENCODING 86
SWIDTH 552 0
DWIDTH 8 0
BBX 8 10 1 0
BITMAP
C3
C3
C6
66
6C
6C
78
30
30
20
ENDCHAR

STARTCHAR W
ENCODING 87
SWIDTH 948 0
DWIDTH 14 0
BBX 14 10 1 0
BITMAP
C30C
C30C
C718
6798
6DB0
69B0
79E0
30C0
30C0
2080
ENDCHAR

STARTCHAR X
ENCODING 88
SWIDTH 677 0
DWIDTH 10 0
BBX 11 10 0 0
BITMAP
3060
18C0
1980
0F00
0600
0E00
1B00
3180
6180
C0C0
ENDCHAR

STARTCHAR Y
ENCODING 89
SWIDTH 563 0
DWIDTH 8 0
BBX 9 10 1 0
BITMAP
C180
C300
6600
6C00
3800
3000
3000
6000
6000
6000
ENDCHAR

STARTCHAR Z
ENCODING 90
SWIDTH 635 0
DWIDTH 10 0
BBX 10 10 0 0
BITMAP
3FC0
00C0
0180
0300
0E00
1C00
3000
6000
C000
FF00
ENDCHAR

STARTCHAR bracketleft
ENCODING 91
SWIDTH 375 0
DWIDTH 6 0
BBX 6 13 0 -3
BITMAP
3C
30
30
30
60
60
60
60
60
C0
C0
C0
F0
ENDCHAR

STARTCHAR backslash
ENCODING 92
SWIDTH 281 0
DWIDTH 4 0
BBX 4 10 0 0
BITMAP
80
80
40
40
40
20
20
20
10
10
ENDCHAR

STARTCHAR bracketright
ENCODING 93
SWIDTH 375 0
DWIDTH 6 0
BBX 6 13 -1 -3
BITMAP
3C
0C
0C
0C
18
18
18
18
18
30
30
30
F0
ENDCHAR

STARTCHAR asciicircum
ENCODING 94
SWIDTH 583 0
DWIDTH 9 0
BBX 7 6 1 4
BITMAP
10
28
28
44
44
82
ENDCHAR

STARTCHAR underscore
ENCODING 95
SWIDTH 500 0
DWIDTH 8 0
BBX 8 1 0 -2
BITMAP
FF
ENDCHAR

STARTCHAR quoteleft
ENCODING 96
SWIDTH 260 0
DWIDTH 4 0
BBX 3 4 1 7
BITMAP
20
40
C0
C0
ENDCHAR

STARTCHAR a
ENCODING 97
SWIDTH 552 0
DWIDTH 8 0
BBX 7 7 1 0
BITMAP
1E
76
66
C6
CC
DC
6C
ENDCHAR

STARTCHAR b
ENCODING 98
SWIDTH 542 0
DWIDTH 8 0
BBX 7 10 1 0
BITMAP
30
30
30
6C
76
66
66
CC
CC
F8
ENDCHAR

STARTCHAR c
ENCODING 99
SWIDTH 469 0
DWIDTH 7 0
BBX 7 7 1 0
BITMAP
3C
66
66
C0
CC
CC
78
ENDCHAR

STARTCHAR d
ENCODING 100
SWIDTH 542 0
DWIDTH 8 0
BBX 8 10 1 0
BITMAP
03
03
03
1E
36
66
C6
CC
CC
7C
ENDCHAR

STARTCHAR e
ENCODING 101
SWIDTH 510 0
DWIDTH 8 0
BBX 7 7 1 0
BITMAP
3C
66
66
FE
C0
CC
78
ENDCHAR

STARTCHAR f
ENCODING 102
SWIDTH 333 0
DWIDTH 5 0
BBX 7 13 1 -3
BITMAP
0E
18
18
30
F8
30
60
60
60
60
C0
C0
C0
ENDCHAR

STARTCHAR g
ENCODING 103
SWIDTH 490 0
DWIDTH 7 0
BBX 8 10 0 -3
BITMAP
3B
66
66
3C
20
60
7C
CE
C6
7C
ENDCHAR

STARTCHAR h
ENCODING 104
SWIDTH 552 0
DWIDTH 8 0
BBX 7 10 1 0
BITMAP
30
30
30
6C
76
66
66
CC
CC
CC
ENDCHAR

STARTCHAR i
ENCODING 105
SWIDTH 260 0
DWIDTH 4 0
BBX 4 10 1 0
BITMAP
30
30
00
60
60
60
60
C0
C0
C0
ENDCHAR

STARTCHAR j
ENCODING 106
SWIDTH 260 0
DWIDTH 4 0
BBX 6 13 -1 -3
BITMAP
0C
0C
00
18
18
18
18
30
30
30
30
60
C0
ENDCHAR

STARTCHAR k
ENCODING 107
SWIDTH 509 0
DWIDTH 8 0
BBX 7 10 1 0
BITMAP
30
30
30
66
6C
78
68
CC
CC
C6
ENDCHAR

STARTCHAR l
ENCODING 108
SWIDTH 260 0
DWIDTH 4 0
BBX 4 10 1 0
BITMAP
30
30
30
60
60
60
60
C0
C0
C0
ENDCHAR

STARTCHAR m
ENCODING 109
SWIDTH 823 0
DWIDTH 12 0
BBX 11 7 1 0
BITMAP
6DC0
7760
6660
6660
CCC0
CCC0
CCC0
ENDCHAR

STARTCHAR n
ENCODING 110
SWIDTH 552 0
DWIDTH 8 0
BBX 7 7 1 0
BITMAP
6C
76
66
66
CC
CC
CC
ENDCHAR

STARTCHAR o
ENCODING 111
SWIDTH 563 0
DWIDTH 8 0
BBX 7 7 1 0
BITMAP
3C
66
66
C6
CC
CC
78
ENDCHAR

STARTCHAR p
ENCODING 112
SWIDTH 583 0
DWIDTH 9 0
BBX 8 11 1 -3
BITMAP
30
36
7B
B3
63
66
76
6C
C0
C0
C0
ENDCHAR

STARTCHAR q
ENCODING 113
SWIDTH 552 0
DWIDTH 8 0
BBX 7 10 1 -3
BITMAP
3E
66
66
CC
DC
DC
6C
18
18
18
ENDCHAR

STARTCHAR r
ENCODING 114
SWIDTH 365 0
DWIDTH 5 0
BBX 6 7 0 0
BITMAP
6C
7C
60
60
C0
C0
C0
ENDCHAR

STARTCHAR s
ENCODING 115
SWIDTH 375 0
DWIDTH 6 0
BBX 7 7 0 0
BITMAP
3C
66
70
38
1C
CC
78
ENDCHAR

STARTCHAR t
ENCODING 116
SWIDTH 365 0
DWIDTH 5 0
BBX 5 8 1 0
BITMAP
30
F8
60
60
60
C0
C0
60
ENDCHAR

STARTCHAR u
ENCODING 117
SWIDTH 552 0
DWIDTH 8 0
BBX 7 7 1 0
BITMAP
66
66
66
CC
CC
DC
6C
ENDCHAR

STARTCHAR v
ENCODING 118
SWIDTH 458 0
DWIDTH 7 0
BBX 7 7 1 0
BITMAP
C6
C6
CC
CC
D8
70
60
ENDCHAR

STARTCHAR w
ENCODING 119
SWIDTH 729 0
DWIDTH 11 0
BBX 11 7 1 0
BITMAP
C660
C660
CCC0
CCC0
DD80
7700
6200
ENDCHAR

STARTCHAR x
ENCODING 120
SWIDTH 531 0
DWIDTH 8 0
BBX 8 7 0 0
BITMAP
63
36
3C
18
3C
6C
C6
ENDCHAR

STARTCHAR y
ENCODING 121
SWIDTH 490 0
DWIDTH 7 0
BBX 7 10 1 -3
BITMAP
C6
C6
6C
6C
38
30
30
60
60
C0
ENDCHAR

STARTCHAR z
ENCODING 122
SWIDTH 458 0
DWIDTH 7 0
BBX 7 7 1 0
BITMAP
7E
0C
18
30
60
C0
FC
ENDCHAR

STARTCHAR braceleft
ENCODING 123
SWIDTH 385 0
DWIDTH 6 0
BBX 3 14 2 -3
BITMAP
20
40
40
40
40
40
40
80
40
40
40
40
40
20
ENDCHAR

STARTCHAR bar
ENCODING 124
SWIDTH 281 0
DWIDTH 4 0
BBX 1 14 2 -4
BITMAP
80
80
80
80
80
80
80
80
80
80
80
80
80
80
ENDCHAR

STARTCHAR braceright
ENCODING 125
SWIDTH 385 0
DWIDTH 6 0
BBX 3 14 2 -3
BITMAP
80
40
40
40
40
40
40
20
40
40
40
40
40
80
ENDCHAR

STARTCHAR asciitilde
ENCODING 126
SWIDTH 584 0
DWIDTH 9 0
BBX 9 3 0 3
BITMAP
3080
4900
8600
ENDCHAR

STARTCHAR space
ENCODING 160
SWIDTH 278 0
DWIDTH 4 0
BBX 0 0 0 0
BITMAP
ENDCHAR

STARTCHAR exclamdown
ENCODING 161
SWIDTH 260 0
DWIDTH 4 0
BBX 4 10 0 -3
BITMAP
30
30
00
00
60
60
60
C0
C0
C0
ENDCHAR

STARTCHAR cent
ENCODING 162
SWIDTH 469 0
DWIDTH 7 0
BBX 7 11 1 -2
BITMAP
02
04
3C
6E
6E
D0
EC
EC
78
40
80
ENDCHAR

STARTCHAR sterling
ENCODING 163
SWIDTH 542 0
DWIDTH 8 0
BBX 7 10 1 0
BITMAP
0E
10
30
30
F8
60
60
60
C2
FC
ENDCHAR

STARTCHAR currency
ENCODING 164
SWIDTH 552 0
DWIDTH 8 0
BBX 7 7 1 2
BITMAP
D6
FE
6C
C6
6C
FE
D6
ENDCHAR

STARTCHAR yen
ENCODING 165
SWIDTH 552 0
DWIDTH 8 0
BBX 10 11 0 0
BITMAP
60C0
6180
3300
3600
1C00
1800
FF00
1800
FF00
3000
3000
ENDCHAR

STARTCHAR brokenbar
ENCODING 166
SWIDTH 281 0
DWIDTH 4 0
BBX 1 14 2 -4
BITMAP
80
80
80
80
80
80
00
00
80
80
80
80
80
80
ENDCHAR

STARTCHAR section
ENCODING 167
SWIDTH 552 0
DWIDTH 8 0
BBX 7 13 1 -3
BITMAP
3C
66
60
30
78
CC
C6
66
3C
18
0C
CC
78
ENDCHAR

STARTCHAR dieresis
ENCODING 168
SWIDTH 333 0
DWIDTH 5 0
BBX 5 2 1 8
BITMAP
D8
D8
ENDCHAR

STARTCHAR copyright
ENCODING 169
SWIDTH 740 0
DWIDTH 11 0
BBX 10 10 1 0
BITMAP
3F00
4080
9E40
B340
B040
B040
B340
9E40
4080
3F00
ENDCHAR

STARTCHAR ordfeminine
ENCODING 170
SWIDTH 365 0
DWIDTH 5 0
BBX 5 4 1 6
BITMAP
78
D0
B0
D0
ENDCHAR

STARTCHAR guillemotleft
ENCODING 171
SWIDTH 542 0
DWIDTH 8 0
BBX 7 7 1 0
BITMAP
12
24
48
90
90
48
24
ENDCHAR

STARTCHAR logicalnot
ENCODING 172
SWIDTH 584 0
DWIDTH 9 0
BBX 7 4 1 3
BITMAP
FE
02
02
02
ENDCHAR

STARTCHAR hyphen
ENCODING 173
SWIDTH 344 0
DWIDTH 5 0
BBX 5 1 0 3
BITMAP
F8
ENDCHAR

STARTCHAR registered
ENCODING 174
SWIDTH 740 0
DWIDTH 11 0
BBX 10 10 1 0
BITMAP
3F00
4080
BE40
B340
B340
BE40
B340
B340
4080
3F00
ENDCHAR

STARTCHAR macron
ENCODING 175
SWIDTH 333 0
DWIDTH 5 0
BBX 5 1 1 9
BITMAP
F8
ENDCHAR

STARTCHAR degree
ENCODING 176
SWIDTH 396 0
DWIDTH 6 0
BBX 5 5 1 5
BITMAP
70
D8
88
D8
70
ENDCHAR

STARTCHAR plusminus
ENCODING 177
SWIDTH 584 0
DWIDTH 9 0
BBX 7 9 1 0
BITMAP
10
10
10
FE
10
10
10
00
FE
ENDCHAR

STARTCHAR twosuperior
ENCODING 178
SWIDTH 323 0
DWIDTH 5 0
BBX 4 5 0 5
BITMAP
30
50
20
40
E0
ENDCHAR

STARTCHAR threesuperior
ENCODING 179
SWIDTH 323 0
DWIDTH 5 0
BBX 4 5 1 5
BITMAP
70
10
60
10
E0
ENDCHAR

STARTCHAR acute
ENCODING 180
SWIDTH 333 0
DWIDTH 5 0
BBX 3 2 2 8
BITMAP
60
C0
ENDCHAR

STARTCHAR mu
ENCODING 181
SWIDTH 615 0
DWIDTH 9 0
BBX 9 9 0 -2
BITMAP
3180
3180
3180
6300
6300
6700
7B00
C000
C000
ENDCHAR

STARTCHAR paragraph
ENCODING 182
SWIDTH 552 0
DWIDTH 8 0
BBX 9 14 0 -3
BITMAP
3F80
7F80
FB00
FB00
FB00
7B00
1B00
1B00
1B00
1B00
1B00
1B00
1B00
1B00
ENDCHAR

STARTCHAR periodcentered
ENCODING 183
SWIDTH 260 0
DWIDTH 4 0
BBX 2 2 2 5
BITMAP
C0
C0
ENDCHAR

STARTCHAR cedilla
ENCODING 184
SWIDTH 333 0
DWIDTH 5 0
BBX 4 3 0 -3
BITMAP
60
30
C0
ENDCHAR

STARTCHAR onesuperior
ENCODING 185
SWIDTH 323 0
DWIDTH 5 0
BBX 2 5 2 5
BITMAP
40
40
40
80
80
ENDCHAR

STARTCHAR ordmasculine
ENCODING 186
SWIDTH 375 0
DWIDTH 6 0
BBX 5 5 1 5
BITMAP
30
48
88
90
60
ENDCHAR

STARTCHAR guillemotright
ENCODING 187
SWIDTH 542 0
DWIDTH 8 0
BBX 8 7 0 0
BITMAP
44
22
11
11
22
44
88
ENDCHAR

STARTCHAR onequarter
ENCODING 188
SWIDTH 844 0
DWIDTH 13 0
BBX 10 10 2 0
BITMAP
2040
2080
4100
4200
4400
08C0
1180
2280
47C0
8100
ENDCHAR

STARTCHAR onehalf
ENCODING 189
SWIDTH 844 0
DWIDTH 13 0
BBX 10 10 1 0
BITMAP
2040
2080
4100
4200
4400
08C0
1140
2080
4100
8380
ENDCHAR

STARTCHAR threequarters
ENCODING 190
SWIDTH 844 0
DWIDTH 13 0
BBX 11 10 1 0
BITMAP
7020
1040
6080
1100
E200
0460
08C0
1140
23E0
4080
ENDCHAR

STARTCHAR questiondown
ENCODING 191
SWIDTH 323 0
DWIDTH 5 0
BBX 5 11 -1 -3
BITMAP
18
18
00
00
10
30
60
C0
C8
F8
70
ENDCHAR

STARTCHAR Agrave
ENCODING 192
SWIDTH 625 0
DWIDTH 9 0
BBX 8 13 0 0
BITMAP
0C
06
00
06
06
0E
0E
1B
33
3F
63
C3
C3
ENDCHAR

STARTCHAR Aacute
ENCODING 193
SWIDTH 625 0
DWIDTH 9 0
BBX 9 13 0 0
BITMAP
0180
0300
0000
0600
0600
0E00
0E00
1B00
3300
3F00
6300
C300
C300
ENDCHAR

STARTCHAR Acircumflex
ENCODING 194
SWIDTH 625 0
DWIDTH 9 0
BBX 8 13 0 0
BITMAP
03
05
00
06
06
0E
0E
1B
33
3F
63
C3
C3
ENDCHAR

STARTCHAR Atilde
ENCODING 195
SWIDTH 625 0
DWIDTH 9 0
BBX 10 13 0 0
BITMAP
0740
0B80
0000
0600
0600
0E00
0E00
1B00
3300
3F00
6300
C300
C300
ENDCHAR

STARTCHAR Adieresis
ENCODING 196
SWIDTH 625 0
DWIDTH 9 0
BBX 9 13 0 0
BITMAP
0D80
0D80
0000
0600
0600
0E00
0E00
1B00
3300
3F00
6300
C300
C300
ENDCHAR

STARTCHAR Aring
ENCODING 197
SWIDTH 625 0
DWIDTH 9 0
BBX 8 13 0 0
BITMAP
02
05
02
06
06
0E
0E
1B
33
3F
63
C3
C3
ENDCHAR

STARTCHAR AE
ENCODING 198
SWIDTH 990 0
DWIDTH 15 0
BBX 14 10 0 0
BITMAP
03FC
06C0
06C0
0D80
19F0
1980
3F80
6300
6300
C3F0
ENDCHAR

STARTCHAR Ccedilla
ENCODING 199
SWIDTH 688 0
DWIDTH 10 0
BBX 9 13 1 -3
BITMAP
0F00
3980
7180
6000
C000
C000
C000
C300
6600
3C00
3000
1800
E000
ENDCHAR

STARTCHAR Egrave
ENCODING 200
SWIDTH 583 0
DWIDTH 9 0
BBX 7 13 1 0
BITMAP
18
0C
00
3E
30
30
60
7C
60
60
C0
C0
FC
ENDCHAR

STARTCHAR Eacute
ENCODING 201
SWIDTH 583 0
DWIDTH 9 0
BBX 7 13 1 0
BITMAP
06
0C
00
3E
30
30
60
7C
60
60
C0
C0
FC
ENDCHAR

STARTCHAR Ecircumflex
ENCODING 202
SWIDTH 583 0
DWIDTH 9 0
BBX 8 13 1 0
BITMAP
0D
16
00
3E
30
30
60
7C
60
60
C0
C0
FC
ENDCHAR

STARTCHAR Edieresis
ENCODING 203
SWIDTH 583 0
DWIDTH 9 0
BBX 8 13 1 0
BITMAP
1B
1B
00
3E
30
30
60
7C
60
60
C0
C0
FC
ENDCHAR

STARTCHAR Igrave
ENCODING 204
SWIDTH 302 0
DWIDTH 5 0
BBX 5 13 1 0
BITMAP
30
18
00
30
30
30
60
60
60
60
C0
C0
C0
ENDCHAR

STARTCHAR Iacute
ENCODING 205
SWIDTH 302 0
DWIDTH 5 0
BBX 5 13 1 0
BITMAP
18
30
00
30
30
30
60
60
60
60
C0
C0
C0
ENDCHAR

STARTCHAR Icircumflex
ENCODING 206
SWIDTH 302 0
DWIDTH 5 0
BBX 5 13 1 0
BITMAP
18
28
00
30
30
30
60
60
60
60
C0
C0
C0
ENDCHAR

STARTCHAR Idieresis
ENCODING 207
SWIDTH 302 0
DWIDTH 5 0
BBX 6 13 1 0
BITMAP
6C
6C
00
30
30
30
60
60
60
60
C0
C0
C0
ENDCHAR

STARTCHAR Eth
ENCODING 208
SWIDTH 750 0
DWIDTH 11 0
BBX 11 10 0 0
BITMAP
1F80
18C0
1860
3060
FE60
3060
3060
60C0
6180
7F00
ENDCHAR

STARTCHAR Ntilde
ENCODING 209
SWIDTH 781 0
DWIDTH 12 0
BBX 11 13 1 0
BITMAP
0680
0B00
0000
3060
3060
3860
78C0
6CC0
66C0
66C0
C380
C180
C180
ENDCHAR

STARTCHAR Ograve
ENCODING 210
SWIDTH 833 0
DWIDTH 12 0
BBX 10 13 1 0
BITMAP
0600
0300
0000
0F00
3980
70C0
60C0
C0C0
C0C0
C180
C380
6700
3C00
ENDCHAR

STARTCHAR Oacute
ENCODING 211
SWIDTH 833 0
DWIDTH 12 0
BBX 10 13 1 0
BITMAP
0300
0600
0000
0F00
3980
70C0
60C0
C0C0
C0C0
C180
C380
6700
3C00
ENDCHAR

STARTCHAR Ocircumflex
ENCODING 212
SWIDTH 833 0
DWIDTH 12 0
BBX 10 13 1 0
BITMAP
0300
0500
0000
0F00
3980
70C0
60C0
C0C0
C0C0
C180
C380
6700
3C00
ENDCHAR

STARTCHAR Otilde
ENCODING 213
SWIDTH 833 0
DWIDTH 12 0
BBX 10 13 1 0
BITMAP
0680
0B00
0000
0F00
3980
70C0
60C0
C0C0
C0C0
C180
C380
6700
3C00
ENDCHAR

STARTCHAR Odieresis
ENCODING 214
SWIDTH 833 0
DWIDTH 12 0
BBX 10 13 1 0
BITMAP
0D80
0D80
0000
0F00
3980
70C0
60C0
C0C0
C0C0
C180
C380
6700
3C00
ENDCHAR

STARTCHAR multiply
ENCODING 215
SWIDTH 584 0
DWIDTH 9 0
BBX 7 7 2 2
BITMAP
82
44
28
10
28
44
82
ENDCHAR

STARTCHAR Oslash
ENCODING 216
SWIDTH 833 0
DWIDTH 12 0
BBX 10 10 1 0
BITMAP
0FC0
3980
73C0
66C0
CCC0
C8C0
D980
F380
6700
FC00
ENDCHAR

STARTCHAR Ugrave
ENCODING 217
SWIDTH 750 0
DWIDTH 11 0
BBX 10 13 1 0
BITMAP
0600
0300
0000
30C0
30C0
30C0
6180
6180
6180
6180
C300
C300
7E00
ENDCHAR

STARTCHAR Uacute
ENCODING 218
SWIDTH 750 0
DWIDTH 11 0
BBX 10 13 1 0
BITMAP
0300
0600
0000
30C0
30C0
30C0
6180
6180
6180
6180
C300
C300
7E00
ENDCHAR

STARTCHAR Ucircumflex
ENCODING 219
SWIDTH 750 0
DWIDTH 11 0
BBX 10 13 1 0
BITMAP
0300
0500
0000
30C0
30C0
30C0
6180
6180
6180
6180
C300
C300
7E00
ENDCHAR

STARTCHAR Udieresis
ENCODING 220
SWIDTH 750 0
DWIDTH 11 0
BBX 10 13 1 0
BITMAP
0D80
0D80
0000
30C0
30C0
30C0
6180
6180
6180
6180
C300
C300
7E00
ENDCHAR

STARTCHAR Yacute
ENCODING 221
SWIDTH 563 0
DWIDTH 8 0
BBX 9 13 1 0
BITMAP
0600
0C00
0000
C180
C300
6600
6C00
3800
3000
3000
6000
6000
6000
ENDCHAR

STARTCHAR Thorn
ENCODING 222
SWIDTH 583 0
DWIDTH 9 0
BBX 8 10 1 0
BITMAP
30
30
3E
63
63
63
66
FC
C0
C0
ENDCHAR

STARTCHAR germandbls
ENCODING 223
SWIDTH 552 0
DWIDTH 8 0
BBX 7 10 1 0
BITMAP
1C
36
36
66
7C
6C
66
C6
D4
D8
ENDCHAR

STARTCHAR agrave
ENCODING 224
SWIDTH 552 0
DWIDTH 8 0
BBX 7 10 1 0
BITMAP
18
0C
00
1E
76
66
C6
CC
DC
6C
ENDCHAR

STARTCHAR aacute
ENCODING 225
SWIDTH 552 0
DWIDTH 8 0
BBX 7 10 1 0
BITMAP
06
0C
00
1E
76
66
C6
CC
DC
6C
ENDCHAR

STARTCHAR acircumflex
ENCODING 226
SWIDTH 552 0
DWIDTH 8 0
BBX 7 10 1 0
BITMAP
06
0A
00
1E
76
66
C6
CC
DC
6C
ENDCHAR

STARTCHAR atilde
ENCODING 227
SWIDTH 552 0
DWIDTH 8 0
BBX 8 10 1 0
BITMAP
0D
16
00
1E
76
66
C6
CC
DC
6C
ENDCHAR

STARTCHAR adieresis
ENCODING 228
SWIDTH 552 0
DWIDTH 8 0
BBX 7 10 1 0
BITMAP
36
36
00
1E
76
66
C6
CC
DC
6C
ENDCHAR

STARTCHAR aring
ENCODING 229
SWIDTH 552 0
DWIDTH 8 0
BBX 7 11 1 0
BITMAP
04
0A
04
00
1E
76
66
C6
CC
DC
6C
ENDCHAR

STARTCHAR ae
ENCODING 230
SWIDTH 688 0
DWIDTH 10 0
BBX 10 7 0 0
BITMAP
3B80
7EC0
0CC0
7FC0
CC00
FCC0
E780
ENDCHAR

STARTCHAR ccedilla
ENCODING 231
SWIDTH 469 0
DWIDTH 7 0
BBX 7 10 0 -3
BITMAP
3C
66
66
C0
CC
CC
78
60
30
E0
ENDCHAR

STARTCHAR egrave
ENCODING 232
SWIDTH 510 0
DWIDTH 8 0
BBX 7 10 1 0
BITMAP
18
0C
00
3C
66
66
FE
C0
CC
78
ENDCHAR

STARTCHAR eacute
ENCODING 233
SWIDTH 510 0
DWIDTH 8 0
BBX 7 10 1 0
BITMAP
06
0C
00
3C
66
66
FE
C0
CC
78
ENDCHAR

STARTCHAR ecircumflex
ENCODING 234
SWIDTH 510 0
DWIDTH 8 0
BBX 7 10 1 0
BITMAP
0C
14
00
3C
66
66
FE
C0
CC
78
ENDCHAR

STARTCHAR edieresis
ENCODING 235
SWIDTH 510 0
DWIDTH 8 0
BBX 8 10 1 0
BITMAP
1B
1B
00
3C
66
66
FE
C0
CC
78
ENDCHAR

STARTCHAR igrave
ENCODING 236
SWIDTH 260 0
DWIDTH 4 0
BBX 4 10 1 0
BITMAP
60
30
00
60
60
60
60
C0
C0
C0
ENDCHAR

STARTCHAR iacute
ENCODING 237
SWIDTH 260 0
DWIDTH 4 0
BBX 5 10 1 0
BITMAP
18
30
00
60
60
60
60
C0
C0
C0
ENDCHAR

STARTCHAR icircumflex
ENCODING 238
SWIDTH 260 0
DWIDTH 4 0
BBX 4 10 1 0
BITMAP
30
50
00
60
60
60
60
C0
C0
C0
ENDCHAR

STARTCHAR idieresis
ENCODING 239
SWIDTH 260 0
DWIDTH 4 0
BBX 5 10 1 0
BITMAP
D8
D8
00
60
60
60
60
C0
C0
C0
ENDCHAR

STARTCHAR eth
ENCODING 240
SWIDTH 552 0
DWIDTH 8 0
BBX 7 11 1 0
BITMAP
6C
18
6C
04
3E
66
66
C6
CC
CC
78
ENDCHAR

STARTCHAR ntilde
ENCODING 241
SWIDTH 552 0
DWIDTH 8 0
BBX 7 10 1 0
BITMAP
1A
2C
00
6C
76
66
66
CC
CC
CC
ENDCHAR

STARTCHAR ograve
ENCODING 242
SWIDTH 563 0
DWIDTH 8 0
BBX 7 10 1 0
BITMAP
18
0C
00
3C
66
66
C6
CC
CC
78
ENDCHAR

STARTCHAR oacute
ENCODING 243
SWIDTH 563 0
DWIDTH 8 0
BBX 7 10 1 0
BITMAP
0C
18
00
3C
66
66
C6
CC
CC
78
ENDCHAR

STARTCHAR ocircumflex
ENCODING 244
SWIDTH 563 0
DWIDTH 8 0
BBX 7 10 1 0
BITMAP
0C
14
00
3C
66
66
C6
CC
CC
78
ENDCHAR

STARTCHAR otilde
ENCODING 245
SWIDTH 563 0
DWIDTH 8 0
BBX 7 10 1 0
BITMAP
1A
2C
00
3C
66
66
C6
CC
CC
78
ENDCHAR

STARTCHAR odieresis
ENCODING 246
SWIDTH 563 0
DWIDTH 8 0
BBX 7 10 1 0
BITMAP
36
36
00
3C
66
66
C6
CC
CC
78
ENDCHAR

STARTCHAR divide
ENCODING 247
SWIDTH 584 0
DWIDTH 9 0
BBX 8 7 1 1
BITMAP
18
00
00
FF
00
00
18
ENDCHAR

STARTCHAR oslash
ENCODING 248
SWIDTH 563 0
DWIDTH 8 0
BBX 8 9 0 -1
BITMAP
01
1E
37
37
6B
76
66
7C
80
ENDCHAR

STARTCHAR ugrave
ENCODING 249
SWIDTH 552 0
DWIDTH 8 0
BBX 7 10 1 0
BITMAP
18
0C
00
66
66
66
CC
CC
DC
6C
ENDCHAR

STARTCHAR uacute
ENCODING 250
SWIDTH 552 0
DWIDTH 8 0
BBX 7 10 1 0
BITMAP
0C
18
00
66
66
66
CC
CC
DC
6C
ENDCHAR

STARTCHAR ucircumflex
ENCODING 251
SWIDTH 552 0
DWIDTH 8 0
BBX 7 10 1 0
BITMAP
0C
14
00
66
66
66
CC
CC
DC
6C
ENDCHAR

STARTCHAR udieresis
ENCODING 252
SWIDTH 552 0
DWIDTH 8 0
BBX 7 10 1 0
BITMAP
36
36
00
66
66
66
CC
CC
DC
6C
ENDCHAR

STARTCHAR yacute
ENCODING 253
SWIDTH 490 0
DWIDTH 7 0
BBX 7 13 1 -3
BITMAP
0C
18
00
C6
C6
6C
6C
38
30
30
60
60
C0
ENDCHAR

STARTCHAR thorn
ENCODING 254
SWIDTH 583 0
DWIDTH 9 0
BBX 8 13 0 -3
BITMAP
18
18
18
3E
33
33
33
67
66
7C
C0
C0
C0
ENDCHAR

STARTCHAR ydieresis
ENCODING 255
SWIDTH 490 0
DWIDTH 7 0
BBX 7 13 1 -3
BITMAP
6C
6C
00
C6
C6
6C
6C
38
30
30
60
60
C0
ENDCHAR
ENDFONT
